<?xml version="1.0" standalone="no"?>
<!DOCTYPE svg PUBLIC "-//W3C//DTD SVG 20010904//EN"
 "http://www.w3.org/TR/2001/REC-SVG-20010904/DTD/svg10.dtd">
<svg version="1.0" xmlns="http://www.w3.org/2000/svg"
 width="1647.000000pt" height="623.000000pt" viewBox="0 0 1647.000000 623.000000"
 preserveAspectRatio="xMidYMid meet">

<g transform="translate(0.000000,623.000000) scale(0.100000,-0.100000)"
fill="#000000" stroke="none">
<path d="M8580 6221 c-14 -5 -50 -16 -81 -25 -102 -29 -237 -136 -296 -234
-139 -228 -81 -522 122 -622 45 -22 63 -24 175 -25 123 0 126 1 200 36 101 49
170 105 229 190 71 101 95 178 96 309 0 156 -43 257 -133 314 -82 51 -238 80
-312 57z"/>
<path d="M783 5943 l-403 -3 0 -34 c0 -223 -60 -1086 -110 -1586 -56 -550
-242 -2104 -259 -2152 l-9 -28 393 0 394 0 5 42 c3 24 10 153 16 288 12 284
42 700 70 980 11 107 20 199 20 204 0 16 437 0 520 -19 116 -27 195 -69 277
-151 89 -88 150 -205 224 -434 45 -138 150 -546 209 -812 l21 -98 401 0 400 0
-7 33 c-18 83 -150 552 -204 722 -131 416 -238 662 -361 830 -63 86 -173 181
-250 217 -52 25 -70 38 -70 53 0 30 10 39 65 59 82 30 242 115 308 164 260
191 425 456 458 733 31 266 -28 489 -172 653 -128 145 -394 277 -649 322 -104
18 -493 23 -1287 17z m1022 -563 c159 -40 260 -107 312 -207 45 -86 58 -151
56 -288 -6 -441 -268 -669 -811 -705 -159 -11 -402 -4 -402 11 0 5 9 102 20
216 22 230 80 915 80 943 0 14 13 21 55 30 168 35 554 35 690 0z"/>
<path d="M7135 5754 c-5 -2 -136 -19 -290 -39 -330 -42 -322 -40 -329 -63 -3
-9 -30 -181 -61 -382 -30 -201 -58 -376 -61 -389 l-5 -24 -202 7 -202 6 -40
-281 -41 -281 96 6 c52 3 141 9 198 12 101 6 102 6 102 -16 0 -12 -16 -135
-34 -273 -105 -760 -127 -1121 -85 -1388 14 -94 61 -228 105 -301 68 -112 201
-204 351 -242 127 -33 380 -38 518 -11 58 12 191 58 249 87 52 26 166 97 166
103 0 1 20 110 45 241 25 131 45 244 45 249 0 6 -51 -15 -113 -45 -145 -72
-275 -105 -407 -104 -121 0 -171 15 -220 64 -108 108 -122 455 -44 1116 27
231 69 512 78 521 3 3 144 0 315 -6 170 -6 320 -9 333 -6 23 6 25 15 61 282
20 152 35 278 33 280 -1 2 -95 -1 -207 -7 -305 -15 -469 -13 -469 4 0 20 53
383 95 650 20 126 34 230 33 231 -2 1 -7 1 -13 -1z"/>
<path d="M5655 5028 c-55 -4 -172 -14 -260 -22 l-160 -13 -62 -43 -61 -43
-164 -13 c-387 -31 -604 -86 -883 -224 -263 -130 -452 -303 -640 -585 -121
-183 -229 -438 -269 -636 -56 -275 -41 -646 34 -871 127 -380 388 -556 766
-518 125 13 142 16 239 47 244 78 460 259 592 492 22 41 33 51 54 51 l26 0 7
-187 c3 -104 9 -232 12 -285 6 -93 8 -98 28 -93 11 3 163 21 336 40 173 20
323 38 333 41 11 4 16 12 13 22 -3 9 -13 96 -23 192 -23 234 -23 711 1 975 36
406 106 992 181 1503 29 204 28 182 13 181 -7 -1 -58 -6 -113 -11z m-609 -615
c-3 -21 -13 -114 -21 -208 -35 -386 -92 -677 -171 -875 -92 -232 -241 -487
-343 -589 -146 -146 -347 -186 -492 -98 -97 59 -152 200 -164 421 -30 540 165
1020 493 1216 174 103 404 164 640 169 l64 1 -6 -37z"/>
<path d="M9978 4999 c-282 -25 -565 -141 -735 -302 -162 -153 -246 -389 -229
-648 10 -161 65 -284 185 -411 115 -123 227 -192 611 -377 258 -124 354 -207
381 -326 26 -116 -22 -210 -134 -264 -111 -54 -242 -74 -482 -74 -231 1 -345
15 -564 74 -62 16 -115 29 -116 27 -6 -6 -145 -527 -145 -542 0 -9 2 -16 5
-16 2 0 30 -7 61 -15 269 -70 849 -84 1175 -29 350 59 623 229 749 465 104
195 130 486 60 668 -100 257 -306 424 -778 630 -184 80 -292 155 -343 238 -27
43 -32 144 -11 204 16 46 64 95 122 124 80 41 150 50 365 49 214 0 340 -15
520 -58 55 -14 102 -23 104 -20 12 11 151 548 144 555 -13 12 -216 38 -388 49
-181 11 -427 11 -557 -1z"/>
<path d="M8470 4929 c-140 -15 -298 -33 -350 -39 l-95 -12 0 -386 c-1 -504
-16 -709 -106 -1432 -57 -459 -117 -906 -125 -934 -6 -18 1 -18 197 -12 380
14 521 23 529 36 4 6 10 69 14 138 34 625 96 1268 196 2027 27 204 53 415 59
470 6 55 13 117 16 138 l5 37 -42 -1 c-24 -1 -158 -14 -298 -30z"/>
<path d="M10889 1984 c-1306 -928 -2378 -1691 -2384 -1696 -5 -6 6 -3 25 5 77
33 4373 2096 4380 2104 5 4 81 271 170 593 89 322 168 606 175 633 8 26 13 47
11 47 -2 0 -1071 -759 -2377 -1686z"/>
<path d="M13487 3663 c-14 -23 -355 -1269 -349 -1274 4 -4 716 -469 1582
-1034 866 -566 1602 -1046 1635 -1068 43 -29 54 -33 39 -16 -12 13 -659 773
-1439 1689 -780 916 -1428 1676 -1440 1689 -12 12 -25 19 -28 14z"/>
<path d="M10642 1108 c-1217 -583 -2211 -1062 -2209 -1064 4 -4 4072 1061
4111 1076 20 7 30 33 76 195 81 290 237 855 236 855 -1 0 -997 -478 -2214
-1062z"/>
<path d="M1100 1777 c-33 -17 -69 -72 -76 -119 -6 -33 -10 -38 -34 -38 -22 0
-29 -6 -32 -25 -5 -22 -2 -25 23 -25 34 0 34 6 14 -160 -16 -132 -30 -195 -45
-205 -6 -4 -10 -15 -10 -26 0 -47 69 -1 95 63 10 25 21 100 28 186 l11 144 43
-6 c42 -6 43 -5 43 24 0 28 -2 30 -40 30 -45 0 -49 10 -28 71 13 39 24 49 54
49 20 0 34 17 34 41 0 13 -51 11 -80 -4z"/>
<path d="M3173 1782 c-31 -3 -32 -4 -38 -70 -15 -165 -37 -357 -42 -385 -5
-26 -4 -29 11 -24 10 4 28 7 40 7 21 0 23 6 34 138 7 75 19 181 25 235 7 54
11 99 7 100 -3 2 -19 1 -37 -1z"/>
<path d="M2010 1760 c-11 -11 -20 -29 -20 -40 0 -27 34 -44 60 -30 25 13 36
55 20 75 -17 20 -36 19 -60 -5z"/>
<path d="M4505 1703 c-4 -43 -14 -149 -23 -235 l-17 -158 35 0 36 0 11 93 c16
137 52 190 117 173 34 -8 40 -47 27 -156 -15 -115 -16 -110 23 -110 l34 0 9
68 c14 118 10 209 -10 229 -28 28 -96 24 -143 -9 -21 -15 -40 -26 -42 -24 -3
4 13 137 24 184 4 20 1 22 -35 22 l-39 0 -7 -77z"/>
<path d="M5534 1757 c-46 -40 -8 -95 42 -62 26 17 32 53 12 73 -17 17 -23 15
-54 -11z"/>
<path d="M7032 1758 c-6 -6 -12 -25 -12 -40 0 -24 4 -28 29 -28 34 0 54 20 49
52 -3 26 -45 37 -66 16z"/>
<path d="M8340 1744 c-13 -32 -13 -30 6 -48 18 -19 47 -8 64 24 15 28 2 50
-31 50 -22 0 -32 -6 -39 -26z"/>
<path d="M9067 1672 c-9 -2 -24 -17 -33 -33 -14 -28 -18 -30 -47 -22 -93 24
-183 -6 -203 -67 -13 -38 -1 -88 22 -97 19 -7 17 -20 -7 -51 -16 -21 -19 -35
-14 -69 5 -35 3 -43 -13 -52 -27 -14 -44 -65 -32 -96 13 -35 47 -49 120 -49
107 0 191 59 193 138 1 52 -18 66 -109 78 -119 15 -124 16 -124 37 0 27 26 44
55 37 39 -10 104 12 138 45 28 28 29 34 24 84 l-5 54 34 7 c27 5 34 11 34 30
0 26 -7 32 -33 26z m-109 -88 c29 -20 30 -76 2 -104 -40 -40 -120 -16 -120 37
0 66 66 104 118 67z m13 -294 c19 -11 25 -43 13 -75 -16 -41 -145 -63 -178
-29 -20 20 -20 63 0 92 13 19 24 22 80 22 36 0 74 -5 85 -10z"/>
<path d="M6905 1639 c-15 -28 -19 -30 -48 -22 -52 13 -132 7 -162 -13 -15 -10
-34 -33 -42 -52 -13 -31 -12 -38 8 -79 l22 -45 -20 -36 c-16 -30 -18 -42 -9
-65 9 -25 7 -31 -11 -45 -48 -37 -49 -107 -1 -133 13 -7 52 -13 88 -13 76 0
136 26 170 74 25 35 29 95 8 116 -15 15 -101 34 -157 34 -51 0 -65 12 -57 45
6 25 10 27 44 21 52 -8 110 10 145 46 28 27 29 33 24 83 l-5 54 33 7 c25 4 34
12 38 30 4 21 0 24 -24 24 -22 0 -32 -7 -44 -31z m-75 -59 c45 -45 11 -120
-54 -120 -41 0 -66 22 -66 56 0 69 75 109 120 64z m15 -293 c14 -11 16 -21 11
-50 -9 -47 -45 -67 -120 -67 -61 0 -76 13 -76 66 0 48 25 64 100 64 39 0 74
-5 85 -13z"/>
<path d="M735 1625 c-111 -39 -159 -191 -87 -277 60 -70 151 -69 223 3 91 91
68 249 -39 279 -46 12 -48 12 -97 -5z m94 -54 c39 -39 39 -126 1 -188 -17 -29
-25 -33 -63 -33 -61 0 -80 23 -80 98 0 34 7 70 17 90 27 52 90 68 125 33z"/>
<path d="M1278 1626 c-66 -24 -105 -65 -118 -124 -23 -104 14 -184 90 -197 78
-13 160 17 160 59 0 12 -7 12 -47 0 -52 -16 -104 -12 -122 10 -7 8 -15 30 -18
50 l-6 36 44 0 c62 1 139 30 162 62 51 69 -47 140 -145 104z m92 -51 c31 -38
-14 -75 -92 -75 -44 0 -48 2 -48 24 0 51 107 91 140 51z"/>
<path d="M1563 1631 c-49 -12 -81 -37 -88 -69 -10 -47 9 -78 72 -114 59 -35
70 -51 53 -78 -7 -11 -28 -15 -79 -14 -62 0 -70 -2 -75 -20 -3 -11 -3 -23 0
-26 3 -3 39 -5 79 -5 85 0 124 20 139 74 12 42 -12 76 -82 114 -40 22 -52 34
-52 52 0 29 23 38 87 34 40 -3 47 0 55 20 5 13 7 25 6 26 -10 9 -88 12 -115 6z"/>
<path d="M1796 1625 c-108 -39 -109 -123 -3 -177 48 -24 57 -34 57 -65 0 -18
-7 -23 -44 -28 -24 -4 -58 -4 -75 0 -27 6 -32 3 -40 -17 -10 -28 4 -36 64 -37
91 -2 158 40 158 99 0 37 -25 65 -85 96 -38 19 -48 30 -48 49 0 29 28 39 89
33 35 -3 41 -1 46 20 7 30 9 28 -40 36 -24 3 -55 0 -79 -9z"/>
<path d="M2205 1625 c-111 -39 -159 -191 -87 -277 60 -70 151 -69 223 3 91 91
68 249 -39 279 -46 12 -48 12 -97 -5z m85 -45 c44 -24 50 -133 10 -198 -17
-28 -25 -32 -63 -32 -61 0 -80 23 -80 98 0 106 63 169 133 132z"/>
<path d="M2972 1624 c-122 -27 -177 -75 -202 -174 -29 -118 73 -196 150 -114
32 33 50 31 50 -7 0 -28 3 -31 23 -25 12 3 27 6 33 6 7 0 13 43 17 118 4 64
10 138 13 165 8 53 12 52 -84 31z m14 -101 c-10 -83 -47 -160 -82 -169 -43
-11 -59 6 -62 69 -5 96 42 156 122 157 l29 0 -7 -57z"/>
<path d="M4015 1625 c-143 -51 -168 -276 -35 -316 72 -22 170 10 170 55 0 12
-7 12 -47 0 -52 -16 -104 -12 -122 10 -7 8 -15 30 -18 50 l-6 36 44 0 c62 1
139 30 162 62 52 70 -47 140 -148 103z m93 -44 c21 -13 10 -54 -18 -68 -14 -7
-46 -13 -72 -13 -42 0 -48 3 -48 20 0 35 44 70 87 70 21 0 44 -4 51 -9z"/>
<path d="M5035 1629 c-95 -23 -122 -32 -153 -56 -34 -26 -65 -78 -76 -130 -9
-38 8 -106 30 -124 28 -23 92 -15 123 15 36 34 51 33 51 -5 0 -24 3 -30 16
-25 9 3 24 6 33 6 16 0 19 15 24 133 4 73 10 147 13 165 7 36 5 36 -61 21z
m-10 -96 c-11 -81 -25 -121 -52 -153 -20 -25 -32 -30 -57 -28 -31 3 -31 3 -34
67 -2 35 2 78 9 94 16 37 64 67 108 67 l33 0 -7 -47z"/>
<path d="M6116 1628 c-57 -16 -112 -75 -124 -135 -20 -90 13 -166 81 -184 66
-17 167 8 167 42 0 22 -2 22 -54 8 -62 -17 -105 -4 -122 36 -23 56 -20 62 45
68 72 8 138 33 151 58 40 73 -43 134 -144 107z m92 -74 c4 -38 -26 -54 -98
-54 -42 0 -50 3 -50 19 0 10 12 30 27 45 22 23 34 26 72 24 43 -3 46 -5 49
-34z"/>
<path d="M7575 1625 c-61 -22 -111 -81 -120 -142 -8 -63 7 -122 40 -153 47
-44 198 -27 207 24 5 23 4 23 -44 8 -90 -26 -138 -1 -138 72 0 21 6 24 62 30
112 11 167 56 146 117 -17 49 -85 69 -153 44z m93 -73 c4 -37 -9 -45 -95 -56
-49 -6 -53 -5 -53 14 0 12 13 35 30 51 25 26 36 30 72 27 40 -3 43 -5 46 -36z"/>
<path d="M7886 1628 c-57 -15 -111 -75 -124 -135 -20 -92 12 -165 80 -183 66
-18 168 7 168 41 0 22 -2 22 -54 8 -62 -17 -105 -4 -122 36 -23 57 -20 62 47
69 90 9 145 36 154 75 9 43 -15 77 -62 90 -21 6 -40 10 -43 10 -3 -1 -22 -6
-44 -11z m92 -74 c4 -38 -26 -54 -98 -54 -42 0 -50 3 -50 19 0 10 12 30 27 45
22 23 34 26 72 24 43 -3 46 -5 49 -34z"/>
<path d="M78 1623 c-15 -4 -18 -16 -18 -61 0 -56 -23 -299 -36 -375 -6 -38 -6
-38 26 -35 41 4 47 16 55 101 l7 69 26 -8 c47 -15 108 -8 140 15 93 66 104
253 17 293 -33 15 -89 2 -117 -27 -31 -33 -48 -32 -48 5 0 31 -9 34 -52 23z
m190 -55 c34 -43 19 -163 -25 -198 -27 -21 -96 -27 -121 -11 -27 17 10 162 52
204 20 20 79 23 94 5z"/>
<path d="M425 1623 c-18 -3 -20 -12 -20 -76 0 -40 -3 -109 -8 -154 l-7 -83 33
0 34 0 7 73 c13 133 24 164 58 176 17 6 40 8 52 5 19 -4 24 1 33 30 l11 36
-33 0 c-18 0 -44 -9 -58 -20 -14 -11 -30 -20 -36 -20 -6 0 -11 9 -11 20 0 20
-10 22 -55 13z"/>
<path d="M2004 1623 c-19 -4 -22 -15 -33 -131 -6 -70 -14 -141 -17 -158 -5
-30 -5 -30 30 -26 20 2 36 9 37 16 0 6 8 77 17 159 19 159 21 151 -34 140z"/>
<path d="M2469 1623 c-13 -3 -17 -25 -22 -111 -4 -59 -9 -128 -13 -154 l-7
-48 35 0 34 0 13 92 c18 138 44 178 116 178 39 0 43 -58 19 -236 l-6 -40 35 4
c42 5 43 9 52 142 7 110 -2 149 -36 169 -34 19 -95 7 -124 -25 -30 -32 -45
-30 -45 6 0 30 -9 35 -51 23z"/>
<path d="M3389 1623 c-13 -3 -17 -27 -22 -136 -4 -73 -10 -142 -13 -154 -6
-21 -3 -23 29 -23 37 0 47 12 47 57 0 15 5 56 11 92 14 77 49 121 97 121 27 0
31 -4 37 -38 3 -21 1 -76 -4 -122 -15 -115 -16 -110 23 -110 l33 0 12 91 c18
136 41 179 100 179 35 0 44 -35 37 -142 -4 -55 -9 -105 -13 -113 -4 -12 4 -15
34 -15 l40 0 11 114 c13 136 5 182 -36 197 -37 14 -96 2 -123 -27 -25 -27 -49
-32 -49 -9 0 8 -11 22 -25 31 -34 22 -90 13 -125 -21 -35 -33 -50 -32 -50 5 0
30 -9 35 -51 23z"/>
<path d="M4315 1615 c-142 -50 -154 -287 -16 -310 53 -9 118 10 126 36 10 29
2 32 -43 19 -78 -24 -122 28 -107 126 3 22 15 51 25 62 22 23 78 38 111 29 15
-4 23 1 30 19 5 14 9 27 9 30 0 10 -98 2 -135 -11z"/>
<path d="M5169 1623 c-13 -3 -17 -26 -23 -126 -3 -67 -9 -138 -12 -158 l-6
-35 35 4 c34 4 36 6 42 56 14 116 27 160 55 188 35 34 75 37 91 6 11 -21 7
-143 -7 -216 -6 -32 -6 -32 33 -32 l39 0 11 117 c13 133 4 174 -41 194 -34 16
-88 4 -116 -26 -32 -34 -50 -32 -50 5 0 30 -9 35 -51 23z"/>
<path d="M5525 1623 c-19 -3 -22 -16 -33 -142 -6 -77 -15 -146 -18 -155 -5
-13 1 -16 35 -16 l41 0 0 48 c0 26 7 97 15 157 8 61 15 111 15 113 0 3 -29 0
-55 -5z"/>
<path d="M5732 1623 c-39 -7 -109 -83 -121 -130 -22 -80 24 -174 91 -188 48
-11 107 4 125 31 21 33 13 38 -35 24 -78 -24 -122 27 -108 124 11 71 33 91
100 91 52 0 56 2 65 28 l10 27 -52 -1 c-29 -1 -62 -4 -75 -6z"/>
<path d="M6333 1623 c-21 -4 -23 -10 -23 -76 0 -40 -3 -109 -7 -154 l-6 -83
27 0 c33 0 40 18 54 122 14 111 53 160 116 144 34 -8 39 -46 23 -168 l-13 -98
36 0 36 0 12 108 c11 107 5 173 -17 195 -6 6 -33 11 -61 11 -41 0 -55 -5 -78
-27 -37 -35 -52 -34 -52 3 0 30 -3 32 -47 23z"/>
<path d="M7029 1623 c-26 -4 -26 -6 -33 -106 -3 -56 -10 -126 -15 -154 l-8
-53 38 0 39 0 0 43 c0 41 14 177 25 245 6 34 7 33 -46 25z"/>
<path d="M7145 1622 c-18 -6 -20 -16 -20 -87 0 -44 -3 -113 -8 -152 l-7 -73
34 0 33 0 7 73 c14 139 38 185 103 194 41 5 42 5 49 -32 6 -35 1 -131 -12
-202 -6 -32 -5 -33 29 -33 l36 0 7 58 c13 92 11 217 -4 234 -29 35 -130 27
-155 -13 -18 -29 -37 -23 -37 11 0 31 -11 36 -55 22z"/>
<path d="M8104 1623 c-20 -4 -21 -12 -27 -143 -4 -76 -8 -145 -9 -152 -2 -8 8
-14 24 -16 35 -4 43 14 56 131 11 103 24 122 82 122 34 0 41 3 49 27 6 17 6
30 1 33 -15 9 -78 -6 -91 -21 -17 -20 -39 -17 -39 6 0 20 -5 21 -46 13z"/>
<path d="M8349 1623 c-26 -4 -26 -5 -38 -136 -7 -73 -15 -142 -18 -154 -5 -21
-1 -23 31 -23 20 0 36 3 36 8 0 4 7 70 15 147 17 162 17 165 8 164 -5 -1 -20
-4 -34 -6z"/>
<path d="M8463 1623 c-20 -4 -21 -10 -20 -66 1 -34 -2 -104 -7 -154 l-8 -93
25 0 c34 0 39 9 53 112 16 121 54 170 117 154 34 -8 40 -43 27 -147 -15 -121
-15 -119 23 -119 l33 0 12 108 c11 107 5 173 -17 195 -6 6 -33 10 -61 10 -38
-1 -56 -7 -81 -27 -34 -29 -49 -27 -49 10 0 24 -4 25 -47 17z"/>
<path d="M16065 1396 c-22 -8 -59 -35 -82 -61 -94 -103 -75 -245 46 -330 37
-26 51 -30 109 -30 111 1 195 64 223 168 21 79 -22 181 -100 232 -49 33 -137
42 -196 21z m152 -31 c74 -31 113 -92 113 -177 0 -95 -63 -170 -154 -183 -84
-13 -173 32 -202 102 -18 42 -18 137 0 171 44 85 154 124 243 87z"/>
<path d="M16060 1185 c0 -87 3 -105 15 -105 11 0 15 12 15 50 0 44 3 50 21 50
21 0 62 -36 90 -79 8 -13 20 -22 27 -20 8 3 2 19 -18 48 l-29 45 25 23 c53 49
12 93 -88 93 l-58 0 0 -105z m135 50 c0 -29 -2 -30 -52 -33 l-53 -3 0 36 0 36
53 -3 c50 -3 52 -4 52 -33z"/>
</g>
</svg>
