<svg width="190" height="216" viewBox="0 0 190 216" fill="none" xmlns="http://www.w3.org/2000/svg">
<path d="M76 10.5C74.4 4.1 82.6667 1.16667 87 0.5C79.6667 0.833333 64 3.3 60 10.5C56 17.7 18.3333 149.833 0 215H41.5C49.5 213.5 66 208 68 198C69.769 189.155 84.3256 139.497 93.8386 107.5L76 10.5Z" fill="url(#paint0_linear_1_14)"/>
<path d="M137 0.5H87C82.6667 1.16667 74.4 4.1 76 10.5C76.8701 13.9803 86.3552 52.1179 97.2673 96C106.422 132.814 116.581 173.671 123.5 201.5C124.167 205.667 127.8 214.2 137 215C146.2 215.8 175.833 215.333 189.5 215L137 0.5Z" fill="url(#paint1_linear_1_14)"/>
<path d="M137 0.5H87C82.6667 1.16667 74.4 4.1 76 10.5C76.8701 13.9803 86.3552 52.1179 97.2673 96C106.422 132.814 116.581 173.671 123.5 201.5C124.167 205.667 127.8 214.2 137 215C146.2 215.8 175.833 215.333 189.5 215L137 0.5Z" fill="url(#paint2_radial_1_14)" fill-opacity="0.2"/>
<defs>
<linearGradient id="paint0_linear_1_14" x1="94.75" y1="0.5" x2="94.75" y2="215.442" gradientUnits="userSpaceOnUse">
<stop stop-color="#85CCFF"/>
<stop offset="1" stop-color="#0057BC"/>
</linearGradient>
<linearGradient id="paint1_linear_1_14" x1="94.75" y1="0.5" x2="94.75" y2="215.442" gradientUnits="userSpaceOnUse">
<stop stop-color="#85CCFF"/>
<stop offset="1" stop-color="#0057BC"/>
</linearGradient>
<radialGradient id="paint2_radial_1_14" cx="0" cy="0" r="1" gradientUnits="userSpaceOnUse" gradientTransform="translate(94.75 107.971) rotate(90) scale(107.471 94.75)">
<stop stop-color="#66D1FF"/>
<stop offset="0.645" stop-color="#0278CD"/>
<stop offset="1" stop-color="#032AF5"/>
</radialGradient>
</defs>
</svg>
